<?xml version="1.0" encoding="UTF-8" standalone="no"?>
<!DOCTYPE svg PUBLIC "-//W3C//DTD SVG 1.1//EN"
 "http://www.w3.org/Graphics/SVG/1.1/DTD/svg11.dtd">
<!-- Generated by graphviz version 14.1.2 (20260124.0452)
 -->
<!-- Title: state transitions Pages: 1 -->
<svg width="106pt" height="128pt"
 viewBox="0.00 0.00 106.00 128.00" xmlns="http://www.w3.org/2000/svg" xmlns:xlink="http://www.w3.org/1999/xlink">
<g id="graph0" class="graph" transform="scale(1 1) rotate(0) translate(4 124.1)">
<title>state transitions</title>
<polygon fill="white" stroke="none" points="-4,4 -4,-124.1 101.75,-124.1 101.75,4 -4,4"/>
<!-- initial -->
<g id="node1" class="node state initial">
<title>initial</title>
<ellipse fill="black" stroke="black" stroke-width="2" cx="48.88" cy="-114.7" rx="5.4" ry="5.4"/>
</g>
<!-- AwaitingLogin -->
<g id="node2" class="node state regular">
<title>AwaitingLogin</title>
<polygon fill="#ffffff" fill-opacity="0.003922" stroke="none" stroke-width="2" points="97.75,-82.05 0,-82.05 0,-46.05 97.75,-46.05 97.75,-82.05"/>
<text xml:space="preserve" text-anchor="start" x="11" y="-59.02" font-family="Helvetica,sans-Serif" font-size="12.00">AwaitingLogin</text>
<path fill="none" stroke="black" stroke-width="2" d="M11.92,-47.67C11.92,-47.67 85.83,-47.67 85.83,-47.67 91.29,-47.67 96.75,-53.13 96.75,-58.59 96.75,-58.59 96.75,-69.51 96.75,-69.51 96.75,-74.97 91.29,-80.42 85.83,-80.42 85.83,-80.42 11.92,-80.42 11.92,-80.42 6.46,-80.42 1,-74.97 1,-69.51 1,-69.51 1,-58.59 1,-58.59 1,-53.13 6.46,-47.67 11.92,-47.67"/>
</g>
<!-- initial&#45;&gt;AwaitingLogin -->
<g id="edge1" class="edge transition">
<title>initial&#45;&gt;AwaitingLogin</title>
<path fill="none" stroke="black" d="M48.88,-108.49C48.88,-104.61 48.88,-98.97 48.88,-93.03"/>
<polygon fill="black" stroke="black" points="52.38,-93.14 48.88,-83.14 45.38,-93.14 52.38,-93.14"/>
<text xml:space="preserve" text-anchor="start" x="48.88" y="-91.8" font-family="Helvetica,sans-Serif" font-size="10.00"> &#160;&#160;&#160;</text>
</g>
<!-- Authenticated -->
<g id="node3" class="node state final">
<title>Authenticated</title>
<ellipse fill="black" stroke="black" stroke-width="2" cx="48.88" cy="-9.4" rx="5.4" ry="5.4"/>
<ellipse fill="none" stroke="black" stroke-width="2" cx="48.88" cy="-9.4" rx="9.4" ry="9.4"/>
</g>
<!-- AwaitingLogin&#45;&gt;Authenticated -->
<g id="edge2" class="edge transition">
<title>AwaitingLogin&#45;&gt;Authenticated</title>
<path fill="none" stroke="black" d="M48.88,-46.1C48.88,-41.3 48.88,-36.02 48.88,-31.03"/>
<polygon fill="black" stroke="black" points="52.38,-31.16 48.88,-21.16 45.38,-31.16 52.38,-31.16"/>
<text xml:space="preserve" text-anchor="start" x="48.88" y="-28.55" font-family="Helvetica,sans-Serif" font-size="10.00">login &#160;&#160;</text>
</g>
</g>
</svg>
