<?xml version="1.0" encoding="UTF-8" standalone="no"?>
<!DOCTYPE svg PUBLIC "-//W3C//DTD SVG 1.1//EN"
 "http://www.w3.org/Graphics/SVG/1.1/DTD/svg11.dtd">
<!-- Generated by graphviz version 14.1.2 (20260124.0452)
 -->
<!-- Title: state transitions Pages: 1 -->
<svg width="1334pt" height="377pt"
 viewBox="0.00 0.00 1334.00 377.00" xmlns="http://www.w3.org/2000/svg" xmlns:xlink="http://www.w3.org/1999/xlink">
<g id="graph0" class="graph" transform="scale(1 1) rotate(0) translate(4 373.3)">
<title>state transitions</title>
<polygon fill="white" stroke="none" points="-4,4 -4,-373.3 1330.04,-373.3 1330.04,4 -4,4"/>
<g id="clust1" class="cluster state parallel">
<title>cluster_Playing</title>
<path fill="none" stroke="black" stroke-width="2" d="M20,-8C20,-8 846,-8 846,-8 852,-8 858,-14 858,-20 858,-20 858,-319.25 858,-319.25 858,-325.25 852,-331.25 846,-331.25 846,-331.25 20,-331.25 20,-331.25 14,-331.25 8,-325.25 8,-319.25 8,-319.25 8,-20 8,-20 8,-14 14,-8 20,-8"/>
<text xml:space="preserve" text-anchor="start" x="412.75" y="-311.85" font-family="Helvetica,sans-Serif" font-size="12.00">Playing</text>
</g>
<g id="clust2" class="cluster state regular">
<title>cluster_GamePlay</title>
<polygon fill="none" stroke="black" stroke-dasharray="5,2" points="16,-16 16,-294.5 543,-294.5 543,-16 16,-16"/>
<text xml:space="preserve" text-anchor="start" x="251.38" y="-275.1" font-family="Helvetica,sans-Serif" font-size="12.00">GamePlay</text>
</g>
<g id="clust3" class="cluster state regular">
<title>cluster_PlayerIdentity</title>
<polygon fill="none" stroke="black" stroke-dasharray="5,2" points="551,-87.25 551,-294.5 842,-294.5 842,-87.25 551,-87.25"/>
<text xml:space="preserve" text-anchor="start" x="660.12" y="-275.1" font-family="Helvetica,sans-Serif" font-size="12.00">PlayerIdentity</text>
</g>
<!-- initial -->
<g id="node1" class="node state initial">
<title>initial</title>
<ellipse fill="black" stroke="black" stroke-width="2" cx="850" cy="-363.9" rx="5.4" ry="5.4"/>
</g>
<!-- Playing -->
<!-- initial&#45;&gt;Playing -->
<g id="edge1" class="edge transition">
<title>initial&#45;&gt;Playing</title>
<path fill="none" stroke="black" d="M850,-357.65C850,-354.09 850,-348.89 850,-342.65"/>
<polygon fill="black" stroke="black" points="853.5,-342.76 850,-332.76 846.5,-342.76 853.5,-342.76"/>
<text xml:space="preserve" text-anchor="start" x="850" y="-341" font-family="Helvetica,sans-Serif" font-size="10.00"> &#160;&#160;&#160;</text>
</g>
<!-- Disposed -->
<g id="node15" class="node state final">
<title>Disposed</title>
<ellipse fill="black" stroke="black" stroke-width="2" cx="1074" cy="-176.5" rx="5.4" ry="5.4"/>
<ellipse fill="none" stroke="black" stroke-width="2" cx="1074" cy="-176.5" rx="9.4" ry="9.4"/>
</g>
<!-- Playing&#45;&gt;Disposed -->
<g id="edge16" class="edge transition">
<title>Playing&#45;&gt;Disposed</title>
<path fill="none" stroke="black" d="M858,-238.7C902.98,-238.31 1123.17,-235.35 1143,-213.75 1159.04,-196.28 1120.78,-185.74 1095.05,-180.83"/>
<polygon fill="black" stroke="black" points="1095.98,-177.44 1085.53,-179.18 1094.78,-184.34 1095.98,-177.44"/>
<text xml:space="preserve" text-anchor="start" x="1146.79" y="-204.25" font-family="Helvetica,sans-Serif" font-size="10.00">game.dispose [participant or count &gt; 6] &#160;&#160;</text>
</g>
<!-- Playing&#45;&gt;Disposed -->
<g id="edge17" class="edge transition">
<title>Playing&#45;&gt;Disposed</title>
<path fill="none" stroke="black" d="M858,-218.87C861.47,-212.66 866.16,-206.42 872.25,-202.5 901.69,-183.56 1006.66,-178.96 1052.42,-177.85"/>
<polygon fill="black" stroke="black" points="1052.43,-181.35 1062.36,-177.65 1052.29,-174.35 1052.43,-181.35"/>
<text xml:space="preserve" text-anchor="start" x="872.25" y="-204.25" font-family="Helvetica,sans-Serif" font-size="10.00">game.reset [participant &amp; has activity] &#160;&#160;</text>
</g>
<!-- Playing&#45;&gt;Disposed -->
<g id="edge18" class="edge transition">
<title>Playing&#45;&gt;Disposed</title>
<path fill="none" stroke="black" d="M858,-238.58C890.82,-237.76 1015.02,-233.39 1048,-213.75 1055.07,-209.54 1060.76,-202.57 1064.98,-195.87"/>
<polygon fill="black" stroke="black" points="1067.94,-197.75 1069.69,-187.3 1061.81,-194.38 1067.94,-197.75"/>
<text xml:space="preserve" text-anchor="start" x="1059.64" y="-204.25" font-family="Helvetica,sans-Serif" font-size="10.00">game.timeout &#160;&#160;</text>
</g>
<!-- GamePlay -->
<!-- GamePlayHistory -->
<g id="node4" class="node state history">
<title>GamePlayHistory</title>
<ellipse fill="#ffffff" fill-opacity="0.003922" stroke="black" stroke-width="2" cx="460" cy="-239.75" rx="18" ry="18"/>
<text xml:space="preserve" text-anchor="middle" x="460" y="-234.72" font-family="Helvetica,sans-Serif" font-size="12.00">H</text>
</g>
<!-- XTurn -->
<g id="node5" class="node state regular">
<title>XTurn</title>
<polygon fill="#ffffff" fill-opacity="0.003922" stroke="none" stroke-width="2" points="282,-194.5 226,-194.5 226,-158.5 282,-158.5 282,-194.5"/>
<text xml:space="preserve" text-anchor="start" x="237.88" y="-171.47" font-family="Helvetica,sans-Serif" font-size="12.00">XTurn</text>
<path fill="none" stroke="black" stroke-width="2" d="M237.92,-160.12C237.92,-160.12 270.08,-160.12 270.08,-160.12 275.54,-160.12 281,-165.58 281,-171.04 281,-171.04 281,-181.96 281,-181.96 281,-187.42 275.54,-192.88 270.08,-192.88 270.08,-192.88 237.92,-192.88 237.92,-192.88 232.46,-192.88 227,-187.42 227,-181.96 227,-181.96 227,-171.04 227,-171.04 227,-165.58 232.46,-160.12 237.92,-160.12"/>
</g>
<!-- GamePlayHistory&#45;&gt;XTurn -->
<g id="edge2" class="edge transition">
<title>GamePlayHistory&#45;&gt;XTurn</title>
<path fill="none" stroke="black" d="M442.44,-233.53C409.43,-223.71 337.43,-202.31 292.61,-188.98"/>
<polygon fill="black" stroke="black" points="293.87,-185.7 283.29,-186.21 291.87,-192.41 293.87,-185.7"/>
<text xml:space="preserve" text-anchor="start" x="375.45" y="-204.25" font-family="Helvetica,sans-Serif" font-size="10.00">(default) &#160;&#160;</text>
</g>
<!-- Won -->
<g id="node6" class="node state final">
<title>Won</title>
<ellipse fill="black" stroke="black" stroke-width="2" cx="298" cy="-42" rx="5.4" ry="5.4"/>
<ellipse fill="none" stroke="black" stroke-width="2" cx="298" cy="-42" rx="9.4" ry="9.4"/>
</g>
<!-- XTurn&#45;&gt;Won -->
<g id="edge3" class="edge transition">
<title>XTurn&#45;&gt;Won</title>
<path fill="none" stroke="black" d="M280.37,-158.7C283.19,-156.19 285.81,-153.44 288,-150.5 305.8,-126.56 286.74,-105.29 310.5,-87.25 330.81,-71.83 407.6,-97.9 425,-79.25 428.41,-75.59 428.18,-71.86 425,-68 423.31,-65.94 354.43,-53.21 318.84,-46.75"/>
<polygon fill="black" stroke="black" points="319.75,-43.36 309.29,-45.03 318.5,-50.25 319.75,-43.36"/>
<text xml:space="preserve" text-anchor="start" x="310.5" y="-109.38" font-family="Helvetica,sans-Serif" font-size="10.00">move.x [valid &amp; wins] &#160;&#160;</text>
</g>
<!-- Draw -->
<g id="node7" class="node state final">
<title>Draw</title>
<ellipse fill="black" stroke="black" stroke-width="2" cx="57" cy="-42" rx="5.4" ry="5.4"/>
<ellipse fill="none" stroke="black" stroke-width="2" cx="57" cy="-42" rx="9.4" ry="9.4"/>
</g>
<!-- XTurn&#45;&gt;Draw -->
<g id="edge4" class="edge transition">
<title>XTurn&#45;&gt;Draw</title>
<path fill="none" stroke="black" d="M226.32,-173.8C176.57,-170.06 75.5,-159.14 56.75,-131.25 43.22,-111.12 46.52,-82.14 51.01,-62.95"/>
<polygon fill="black" stroke="black" points="54.36,-63.97 53.57,-53.41 47.6,-62.16 54.36,-63.97"/>
<text xml:space="preserve" text-anchor="start" x="56.75" y="-109.38" font-family="Helvetica,sans-Serif" font-size="10.00">move.x [valid &amp; fills board] &#160;&#160;</text>
</g>
<!-- OTurn -->
<g id="node8" class="node state regular">
<title>OTurn</title>
<polygon fill="#ffffff" fill-opacity="0.003922" stroke="none" stroke-width="2" points="249,-131.25 193,-131.25 193,-95.25 249,-95.25 249,-131.25"/>
<text xml:space="preserve" text-anchor="start" x="204.5" y="-108.22" font-family="Helvetica,sans-Serif" font-size="12.00">OTurn</text>
<path fill="none" stroke="black" stroke-width="2" d="M204.92,-96.88C204.92,-96.88 237.08,-96.88 237.08,-96.88 242.54,-96.88 248,-102.33 248,-107.79 248,-107.79 248,-118.71 248,-118.71 248,-124.17 242.54,-129.62 237.08,-129.62 237.08,-129.62 204.92,-129.62 204.92,-129.62 199.46,-129.62 194,-124.17 194,-118.71 194,-118.71 194,-107.79 194,-107.79 194,-102.33 199.46,-96.88 204.92,-96.88"/>
</g>
<!-- XTurn&#45;&gt;OTurn -->
<g id="edge5" class="edge transition">
<title>XTurn&#45;&gt;OTurn</title>
<path fill="none" stroke="black" d="M226.21,-174.42C190.63,-172.4 131.93,-166.63 118.5,-150.5 89.23,-115.33 106.56,-148.96 176,-131.25 178.12,-130.71 180.29,-130.1 182.46,-129.44"/>
<polygon fill="black" stroke="black" points="183.41,-132.81 191.79,-126.32 181.2,-126.17 183.41,-132.81"/>
<text xml:space="preserve" text-anchor="start" x="118.5" y="-141" font-family="Helvetica,sans-Serif" font-size="10.00">move.x [valid] &#160;&#160;</text>
</g>
<!-- MoveError -->
<g id="node9" class="node state regular">
<title>MoveError</title>
<polygon fill="#ffffff" fill-opacity="0.003922" stroke="none" stroke-width="2" points="479.75,-60 402.25,-60 402.25,-24 479.75,-24 479.75,-60"/>
<text xml:space="preserve" text-anchor="start" x="413.25" y="-36.98" font-family="Helvetica,sans-Serif" font-size="12.00">MoveError</text>
<path fill="none" stroke="black" stroke-width="2" d="M414.17,-25.62C414.17,-25.62 467.83,-25.62 467.83,-25.62 473.29,-25.62 478.75,-31.08 478.75,-36.54 478.75,-36.54 478.75,-47.46 478.75,-47.46 478.75,-52.92 473.29,-58.38 467.83,-58.38 467.83,-58.38 414.17,-58.38 414.17,-58.38 408.71,-58.38 403.25,-52.92 403.25,-47.46 403.25,-47.46 403.25,-36.54 403.25,-36.54 403.25,-31.08 408.71,-25.62 414.17,-25.62"/>
</g>
<!-- XTurn&#45;&gt;MoveError -->
<g id="edge6" class="edge transition">
<title>XTurn&#45;&gt;MoveError</title>
<path fill="none" stroke="black" d="M281.74,-175.5C317.23,-173.99 378.49,-166.05 415,-131.25 431.28,-115.73 437.51,-90.59 439.83,-71.11"/>
<polygon fill="black" stroke="black" points="443.3,-71.62 440.69,-61.35 436.33,-71.01 443.3,-71.62"/>
<text xml:space="preserve" text-anchor="start" x="436.94" y="-109.38" font-family="Helvetica,sans-Serif" font-size="10.00">move [invalid] &#160;&#160;</text>
</g>
<!-- OTurn&#45;&gt;XTurn -->
<g id="edge9" class="edge transition">
<title>OTurn&#45;&gt;XTurn</title>
<path fill="none" stroke="black" d="M214.91,-130.9C213.55,-137.34 213.33,-144.57 216.5,-150.5 217.09,-151.6 217.75,-152.67 218.48,-153.69"/>
<polygon fill="black" stroke="black" points="215.84,-155.99 225.3,-160.77 220.88,-151.14 215.84,-155.99"/>
<text xml:space="preserve" text-anchor="start" x="216.5" y="-141" font-family="Helvetica,sans-Serif" font-size="10.00">move.o [valid] &#160;&#160;</text>
</g>
<!-- OTurn&#45;&gt;Won -->
<g id="edge7" class="edge transition">
<title>OTurn&#45;&gt;Won</title>
<path fill="none" stroke="black" d="M217.73,-95.57C216.92,-86.55 217.62,-75.71 223.5,-68 235.89,-51.77 259.25,-45.97 276.53,-43.95"/>
<polygon fill="black" stroke="black" points="276.59,-47.46 286.28,-43.18 276.03,-40.48 276.59,-47.46"/>
<text xml:space="preserve" text-anchor="start" x="223.5" y="-69.75" font-family="Helvetica,sans-Serif" font-size="10.00">move.o [valid &amp; wins] &#160;&#160;</text>
</g>
<!-- OTurn&#45;&gt;Draw -->
<g id="edge8" class="edge transition">
<title>OTurn&#45;&gt;Draw</title>
<path fill="none" stroke="black" d="M194.69,-95.27C188.75,-92.11 182.32,-89.2 176,-87.25 138.79,-75.77 123.44,-96.94 88.75,-79.25 80.35,-74.97 73.19,-67.42 67.8,-60.32"/>
<polygon fill="black" stroke="black" points="71,-58.8 62.47,-52.52 65.22,-62.75 71,-58.8"/>
<text xml:space="preserve" text-anchor="start" x="88.75" y="-69.75" font-family="Helvetica,sans-Serif" font-size="10.00">move.o [valid &amp; fills board] &#160;&#160;</text>
</g>
<!-- OTurn&#45;&gt;MoveError -->
<g id="edge10" class="edge transition">
<title>OTurn&#45;&gt;MoveError</title>
<path fill="none" stroke="black" d="M247.37,-95.44C253.31,-92.28 259.72,-89.32 266,-87.25 292.39,-78.57 300.88,-85.3 328,-79.25 334.63,-77.77 364.46,-68.18 391.81,-59.24"/>
<polygon fill="black" stroke="black" points="392.65,-62.64 401.07,-56.2 390.47,-55.99 392.65,-62.64"/>
<text xml:space="preserve" text-anchor="start" x="364.02" y="-69.75" font-family="Helvetica,sans-Serif" font-size="10.00">move [invalid] &#160;&#160;</text>
</g>
<!-- MoveError&#45;&gt;GamePlayHistory -->
<g id="edge11" class="edge transition">
<title>MoveError&#45;&gt;GamePlayHistory</title>
<path fill="none" stroke="black" d="M479.74,-57.92C492.33,-64.83 504.88,-74.42 512,-87.25 535.75,-130.03 502.28,-185.58 479.04,-216.13"/>
<polygon fill="black" stroke="black" points="476.32,-213.92 472.87,-223.93 481.82,-218.25 476.32,-213.92"/>
<text xml:space="preserve" text-anchor="start" x="517.97" y="-141" font-family="Helvetica,sans-Serif" font-size="10.00"> &#160;&#160;&#160;</text>
</g>
<!-- PlayerIdentity -->
<!-- Unassigned -->
<g id="node11" class="node state regular">
<title>Unassigned</title>
<polygon fill="#ffffff" fill-opacity="0.003922" stroke="none" stroke-width="2" points="740.25,-257.75 653.75,-257.75 653.75,-221.75 740.25,-221.75 740.25,-257.75"/>
<text xml:space="preserve" text-anchor="start" x="664.75" y="-234.72" font-family="Helvetica,sans-Serif" font-size="12.00">Unassigned</text>
<path fill="none" stroke="black" stroke-width="2" d="M665.67,-223.38C665.67,-223.38 728.33,-223.38 728.33,-223.38 733.79,-223.38 739.25,-228.83 739.25,-234.29 739.25,-234.29 739.25,-245.21 739.25,-245.21 739.25,-250.67 733.79,-256.12 728.33,-256.12 728.33,-256.12 665.67,-256.12 665.67,-256.12 660.21,-256.12 654.75,-250.67 654.75,-245.21 654.75,-245.21 654.75,-234.29 654.75,-234.29 654.75,-228.83 660.21,-223.38 665.67,-223.38"/>
</g>
<!-- XOnlyAssigned -->
<g id="node12" class="node state regular">
<title>XOnlyAssigned</title>
<polygon fill="#ffffff" fill-opacity="0.003922" stroke="none" stroke-width="2" points="664.62,-194.5 559.38,-194.5 559.38,-158.5 664.62,-158.5 664.62,-194.5"/>
<text xml:space="preserve" text-anchor="start" x="570.38" y="-171.47" font-family="Helvetica,sans-Serif" font-size="12.00">XOnlyAssigned</text>
<path fill="none" stroke="black" stroke-width="2" d="M571.29,-160.12C571.29,-160.12 652.71,-160.12 652.71,-160.12 658.17,-160.12 663.62,-165.58 663.62,-171.04 663.62,-171.04 663.62,-181.96 663.62,-181.96 663.62,-187.42 658.17,-192.88 652.71,-192.88 652.71,-192.88 571.29,-192.88 571.29,-192.88 565.83,-192.88 560.38,-187.42 560.38,-181.96 560.38,-181.96 560.38,-171.04 560.38,-171.04 560.38,-165.58 565.83,-160.12 571.29,-160.12"/>
</g>
<!-- Unassigned&#45;&gt;XOnlyAssigned -->
<g id="edge12" class="edge transition">
<title>Unassigned&#45;&gt;XOnlyAssigned</title>
<path fill="none" stroke="black" d="M653.99,-229.19C627.95,-223.2 599.38,-216.16 597.5,-213.75 595.5,-211.18 594.76,-208.3 594.88,-205.32"/>
<polygon fill="black" stroke="black" points="598.19,-206.45 597.89,-195.86 591.52,-204.32 598.19,-206.45"/>
<text xml:space="preserve" text-anchor="start" x="597.5" y="-204.25" font-family="Helvetica,sans-Serif" font-size="10.00">move.x [no X assigned] &#160;&#160;</text>
</g>
<!-- OOnlyAssigned -->
<g id="node13" class="node state regular">
<title>OOnlyAssigned</title>
<polygon fill="#ffffff" fill-opacity="0.003922" stroke="none" stroke-width="2" points="793,-194.5 687,-194.5 687,-158.5 793,-158.5 793,-194.5"/>
<text xml:space="preserve" text-anchor="start" x="698" y="-171.47" font-family="Helvetica,sans-Serif" font-size="12.00">OOnlyAssigned</text>
<path fill="none" stroke="black" stroke-width="2" d="M698.92,-160.12C698.92,-160.12 781.08,-160.12 781.08,-160.12 786.54,-160.12 792,-165.58 792,-171.04 792,-171.04 792,-181.96 792,-181.96 792,-187.42 786.54,-192.88 781.08,-192.88 781.08,-192.88 698.92,-192.88 698.92,-192.88 693.46,-192.88 688,-187.42 688,-181.96 688,-181.96 688,-171.04 688,-171.04 688,-165.58 693.46,-160.12 698.92,-160.12"/>
</g>
<!-- Unassigned&#45;&gt;OOnlyAssigned -->
<g id="edge13" class="edge transition">
<title>Unassigned&#45;&gt;OOnlyAssigned</title>
<path fill="none" stroke="black" d="M708.75,-222.01C712.73,-216.34 717.28,-209.86 721.65,-203.64"/>
<polygon fill="black" stroke="black" points="724.51,-205.65 727.39,-195.46 718.78,-201.63 724.51,-205.65"/>
<text xml:space="preserve" text-anchor="start" x="722.35" y="-204.25" font-family="Helvetica,sans-Serif" font-size="10.00">move.o [no O assigned] &#160;&#160;</text>
</g>
<!-- BothAssigned -->
<g id="node14" class="node state regular">
<title>BothAssigned</title>
<polygon fill="#ffffff" fill-opacity="0.003922" stroke="none" stroke-width="2" points="715.5,-131.25 618.5,-131.25 618.5,-95.25 715.5,-95.25 715.5,-131.25"/>
<text xml:space="preserve" text-anchor="start" x="629.5" y="-108.22" font-family="Helvetica,sans-Serif" font-size="12.00">BothAssigned</text>
<path fill="none" stroke="black" stroke-width="2" d="M630.42,-96.88C630.42,-96.88 703.58,-96.88 703.58,-96.88 709.04,-96.88 714.5,-102.33 714.5,-107.79 714.5,-107.79 714.5,-118.71 714.5,-118.71 714.5,-124.17 709.04,-129.62 703.58,-129.62 703.58,-129.62 630.42,-129.62 630.42,-129.62 624.96,-129.62 619.5,-124.17 619.5,-118.71 619.5,-118.71 619.5,-107.79 619.5,-107.79 619.5,-102.33 624.96,-96.88 630.42,-96.88"/>
</g>
<!-- XOnlyAssigned&#45;&gt;BothAssigned -->
<g id="edge14" class="edge transition">
<title>XOnlyAssigned&#45;&gt;BothAssigned</title>
<path fill="none" stroke="black" d="M595.13,-158.7C590.79,-152.38 588.43,-145.27 592.75,-139.25 596.86,-133.52 602.36,-129.09 608.5,-125.66"/>
<polygon fill="black" stroke="black" points="609.57,-129.02 617.21,-121.69 606.66,-122.66 609.57,-129.02"/>
<text xml:space="preserve" text-anchor="start" x="592.75" y="-141" font-family="Helvetica,sans-Serif" font-size="10.00">move.o [different user] &#160;&#160;</text>
</g>
<!-- OOnlyAssigned&#45;&gt;BothAssigned -->
<g id="edge15" class="edge transition">
<title>OOnlyAssigned&#45;&gt;BothAssigned</title>
<path fill="none" stroke="black" d="M722.91,-158.82C716.23,-152.51 708.41,-145.38 701,-139.25 700.49,-138.83 699.97,-138.4 699.45,-137.98"/>
<polygon fill="black" stroke="black" points="701.91,-135.46 691.87,-132.05 697.59,-140.97 701.91,-135.46"/>
<text xml:space="preserve" text-anchor="start" x="713.15" y="-141" font-family="Helvetica,sans-Serif" font-size="10.00">move.x [different user] &#160;&#160;</text>
</g>
</g>
</svg>
