<?xml version="1.0" encoding="UTF-8" standalone="no"?>
<!DOCTYPE svg PUBLIC "-//W3C//DTD SVG 1.1//EN"
 "http://www.w3.org/Graphics/SVG/1.1/DTD/svg11.dtd">
<!-- Generated by graphviz version 14.1.2 (20260124.0452)
 -->
<!-- Title: state transitions Pages: 1 -->
<svg width="942pt" height="656pt"
 viewBox="0.00 0.00 942.00 656.00" xmlns="http://www.w3.org/2000/svg" xmlns:xlink="http://www.w3.org/1999/xlink">
<g id="graph0" class="graph" transform="scale(1 1) rotate(0) translate(4 652)">
<title>state transitions</title>
<polygon fill="white" stroke="none" points="-4,4 -4,-652 937.8,-652 937.8,4 -4,4"/>
<g id="clust1" class="cluster state parallel">
<title>cluster_TicTacToe</title>
<path fill="none" stroke="black" stroke-width="2" d="M50.8,-8C50.8,-8 913.8,-8 913.8,-8 919.8,-8 925.8,-14 925.8,-20 925.8,-20 925.8,-628 925.8,-628 925.8,-634 919.8,-640 913.8,-640 913.8,-640 50.8,-640 50.8,-640 44.8,-640 38.8,-634 38.8,-628 38.8,-628 38.8,-20 38.8,-20 38.8,-14 44.8,-8 50.8,-8"/>
<text xml:space="preserve" text-anchor="start" x="455.67" y="-620.6" font-family="Helvetica,sans-Serif" font-size="12.00">TicTacToe</text>
</g>
<g id="clust2" class="cluster state regular">
<title>cluster_GamePlay</title>
<polygon fill="none" stroke="black" stroke-dasharray="5,2" points="72.05,-16 72.05,-286 917.8,-286 917.8,-16 72.05,-16"/>
<text xml:space="preserve" text-anchor="start" x="466.8" y="-266.6" font-family="Helvetica,sans-Serif" font-size="12.00">GamePlay</text>
</g>
<g id="clust3" class="cluster state regular">
<title>cluster_PlayerIdentity</title>
<polygon fill="none" stroke="black" stroke-dasharray="5,2" points="46.8,-294 46.8,-433 684.92,-433 684.92,-294 46.8,-294"/>
<text xml:space="preserve" text-anchor="start" x="329.49" y="-413.6" font-family="Helvetica,sans-Serif" font-size="12.00">PlayerIdentity</text>
</g>
<g id="clust4" class="cluster state regular">
<title>cluster_GameSession</title>
<polygon fill="none" stroke="black" stroke-dasharray="5,2" points="62.05,-441 62.05,-595 406.95,-595 406.95,-441 62.05,-441"/>
<text xml:space="preserve" text-anchor="start" x="196.62" y="-575.6" font-family="Helvetica,sans-Serif" font-size="12.00">GameSession</text>
</g>
<!-- initial -->
<g id="node1" class="node state initial">
<title>initial</title>
<ellipse fill="black" stroke="black" stroke-width="2" cx="5.4" cy="-603" rx="5.4" ry="5.4"/>
</g>
<!-- TicTacToe -->
<!-- initial&#45;&gt;TicTacToe -->
<g id="edge1" class="edge transition">
<title>initial&#45;&gt;TicTacToe</title>
<path fill="none" stroke="black" d="M11.8,-603C15.55,-603 21,-603 27.37,-603"/>
<polygon fill="black" stroke="black" points="27.29,-606.5 37.29,-603 27.29,-599.5 27.29,-606.5"/>
<text xml:space="preserve" text-anchor="start" x="18.8" y="-604.75" font-family="Helvetica,sans-Serif" font-size="10.00"> &#160;&#160;&#160;</text>
</g>
<!-- GamePlay -->
<!-- GamePlayHistory -->
<g id="node4" class="node state history">
<title>GamePlayHistory</title>
<ellipse fill="#ffffff" fill-opacity="0.003922" stroke="black" stroke-width="2" cx="98.05" cy="-189" rx="18" ry="18"/>
<text xml:space="preserve" text-anchor="middle" x="98.05" y="-183.97" font-family="Helvetica,sans-Serif" font-size="12.00">H</text>
</g>
<!-- XTurn -->
<g id="node5" class="node state regular">
<title>XTurn</title>
<polygon fill="#ffffff" fill-opacity="0.003922" stroke="none" stroke-width="2" points="417.55,-167 361.55,-167 361.55,-131 417.55,-131 417.55,-167"/>
<text xml:space="preserve" text-anchor="start" x="373.42" y="-143.97" font-family="Helvetica,sans-Serif" font-size="12.00">XTurn</text>
<path fill="none" stroke="black" stroke-width="2" d="M373.47,-132.62C373.47,-132.62 405.63,-132.62 405.63,-132.62 411.09,-132.62 416.55,-138.08 416.55,-143.54 416.55,-143.54 416.55,-154.46 416.55,-154.46 416.55,-159.92 411.09,-165.38 405.63,-165.38 405.63,-165.38 373.47,-165.38 373.47,-165.38 368.01,-165.38 362.55,-159.92 362.55,-154.46 362.55,-154.46 362.55,-143.54 362.55,-143.54 362.55,-138.08 368.01,-132.62 373.47,-132.62"/>
</g>
<!-- GamePlayHistory&#45;&gt;XTurn -->
<g id="edge2" class="edge transition">
<title>GamePlayHistory&#45;&gt;XTurn</title>
<path fill="none" stroke="black" d="M116.72,-186.56C162.84,-180.19 287.59,-162.95 350.78,-154.22"/>
<polygon fill="black" stroke="black" points="350.9,-157.73 360.33,-152.9 349.95,-150.8 350.9,-157.73"/>
<text xml:space="preserve" text-anchor="start" x="216.8" y="-183.1" font-family="Helvetica,sans-Serif" font-size="10.00">(default) &#160;&#160;</text>
</g>
<!-- Won -->
<g id="node6" class="node state final">
<title>Won</title>
<ellipse fill="black" stroke="black" stroke-width="2" cx="871.05" cy="-134" rx="5.4" ry="5.4"/>
<ellipse fill="none" stroke="black" stroke-width="2" cx="871.05" cy="-134" rx="9.4" ry="9.4"/>
</g>
<!-- XTurn&#45;&gt;Won -->
<g id="edge3" class="edge transition">
<title>XTurn&#45;&gt;Won</title>
<path fill="none" stroke="black" d="M417.42,-150.49C427.78,-151.03 439.71,-151.6 450.55,-152 616.57,-158.15 662.99,-197.74 824.3,-158 834.35,-155.52 844.64,-150.4 852.91,-145.52"/>
<polygon fill="black" stroke="black" points="854.57,-148.61 861.14,-140.3 850.82,-142.7 854.57,-148.61"/>
<text xml:space="preserve" text-anchor="start" x="576.67" y="-177.19" font-family="Helvetica,sans-Serif" font-size="10.00">move.x [valid &amp; wins] &#160;&#160;</text>
</g>
<!-- Draw -->
<g id="node7" class="node state final">
<title>Draw</title>
<ellipse fill="black" stroke="black" stroke-width="2" cx="871.05" cy="-56" rx="5.4" ry="5.4"/>
<ellipse fill="none" stroke="black" stroke-width="2" cx="871.05" cy="-56" rx="9.4" ry="9.4"/>
</g>
<!-- XTurn&#45;&gt;Draw -->
<g id="edge4" class="edge transition">
<title>XTurn&#45;&gt;Draw</title>
<path fill="none" stroke="black" d="M402.15,-131.05C412.88,-115.91 430.22,-94.87 450.55,-83 584.69,-4.68 785.75,-37.93 849.73,-51.36"/>
<polygon fill="black" stroke="black" points="848.95,-54.77 859.46,-53.49 850.44,-47.94 848.95,-54.77"/>
<text xml:space="preserve" text-anchor="start" x="565.8" y="-43.35" font-family="Helvetica,sans-Serif" font-size="10.00">move.x [valid &amp; fills board] &#160;&#160;</text>
</g>
<!-- OTurn -->
<g id="node8" class="node state regular">
<title>OTurn</title>
<polygon fill="#ffffff" fill-opacity="0.003922" stroke="none" stroke-width="2" points="656.42,-115 600.42,-115 600.42,-79 656.42,-79 656.42,-115"/>
<text xml:space="preserve" text-anchor="start" x="611.92" y="-91.97" font-family="Helvetica,sans-Serif" font-size="12.00">OTurn</text>
<path fill="none" stroke="black" stroke-width="2" d="M612.34,-80.62C612.34,-80.62 644.51,-80.62 644.51,-80.62 649.97,-80.62 655.42,-86.08 655.42,-91.54 655.42,-91.54 655.42,-102.46 655.42,-102.46 655.42,-107.92 649.97,-113.38 644.51,-113.38 644.51,-113.38 612.34,-113.38 612.34,-113.38 606.88,-113.38 601.42,-107.92 601.42,-102.46 601.42,-102.46 601.42,-91.54 601.42,-91.54 601.42,-86.08 606.88,-80.62 612.34,-80.62"/>
</g>
<!-- XTurn&#45;&gt;OTurn -->
<g id="edge5" class="edge transition">
<title>XTurn&#45;&gt;OTurn</title>
<path fill="none" stroke="black" d="M407.06,-131.15C418.19,-120.45 433.84,-107.79 450.55,-101.75 496.17,-85.26 552.81,-87.3 589.51,-91.29"/>
<polygon fill="black" stroke="black" points="588.84,-94.74 599.19,-92.46 589.68,-87.79 588.84,-94.74"/>
<text xml:space="preserve" text-anchor="start" x="468.92" y="-103.5" font-family="Helvetica,sans-Serif" font-size="10.00">move.x [valid] &#160;&#160;</text>
</g>
<!-- MoveError -->
<g id="node9" class="node state regular">
<title>MoveError</title>
<polygon fill="#ffffff" fill-opacity="0.003922" stroke="none" stroke-width="2" points="909.8,-232 832.3,-232 832.3,-196 909.8,-196 909.8,-232"/>
<text xml:space="preserve" text-anchor="start" x="843.3" y="-208.97" font-family="Helvetica,sans-Serif" font-size="12.00">MoveError</text>
<path fill="none" stroke="black" stroke-width="2" d="M844.22,-197.62C844.22,-197.62 897.88,-197.62 897.88,-197.62 903.34,-197.62 908.8,-203.08 908.8,-208.54 908.8,-208.54 908.8,-219.46 908.8,-219.46 908.8,-224.92 903.34,-230.38 897.88,-230.38 897.88,-230.38 844.22,-230.38 844.22,-230.38 838.76,-230.38 833.3,-224.92 833.3,-219.46 833.3,-219.46 833.3,-208.54 833.3,-208.54 833.3,-203.08 838.76,-197.62 844.22,-197.62"/>
</g>
<!-- XTurn&#45;&gt;MoveError -->
<g id="edge6" class="edge transition">
<title>XTurn&#45;&gt;MoveError</title>
<path fill="none" stroke="black" d="M417.36,-156.14C451.56,-164.98 512.65,-179.85 565.8,-188 655.21,-201.71 760.59,-208.69 820.94,-211.83"/>
<polygon fill="black" stroke="black" points="820.71,-215.32 830.88,-212.33 821.06,-208.33 820.71,-215.32"/>
<text xml:space="preserve" text-anchor="start" x="593.55" y="-204.43" font-family="Helvetica,sans-Serif" font-size="10.00">move [invalid] &#160;&#160;</text>
</g>
<!-- OTurn&#45;&gt;XTurn -->
<g id="edge9" class="edge transition">
<title>OTurn&#45;&gt;XTurn</title>
<path fill="none" stroke="black" d="M600.69,-103.75C587.76,-106.95 572,-110.78 557.8,-114 513.67,-124 462.76,-134.51 428.81,-141.37"/>
<polygon fill="black" stroke="black" points="428.15,-137.93 419.03,-143.34 429.53,-144.8 428.15,-137.93"/>
<text xml:space="preserve" text-anchor="start" x="468.92" y="-137.91" font-family="Helvetica,sans-Serif" font-size="10.00">move.o [valid] &#160;&#160;</text>
</g>
<!-- OTurn&#45;&gt;Won -->
<g id="edge7" class="edge transition">
<title>OTurn&#45;&gt;Won</title>
<path fill="none" stroke="black" d="M656.25,-94.64C694.44,-92.12 766.31,-90.57 824.3,-107.75 834.43,-110.75 844.73,-116.38 852.98,-121.66"/>
<polygon fill="black" stroke="black" points="850.99,-124.54 861.22,-127.29 854.94,-118.76 850.99,-124.54"/>
<text xml:space="preserve" text-anchor="start" x="709.92" y="-109.5" font-family="Helvetica,sans-Serif" font-size="10.00">move.o [valid &amp; wins] &#160;&#160;</text>
</g>
<!-- OTurn&#45;&gt;Draw -->
<g id="edge8" class="edge transition">
<title>OTurn&#45;&gt;Draw</title>
<path fill="none" stroke="black" d="M656.28,-88.08C669.11,-84.11 684.74,-79.68 699.05,-76.75 752.61,-65.79 816.88,-59.9 849.25,-57.43"/>
<polygon fill="black" stroke="black" points="849.47,-60.92 859.19,-56.71 848.96,-53.94 849.47,-60.92"/>
<text xml:space="preserve" text-anchor="start" x="699.05" y="-78.5" font-family="Helvetica,sans-Serif" font-size="10.00">move.o [valid &amp; fills board] &#160;&#160;</text>
</g>
<!-- OTurn&#45;&gt;MoveError -->
<g id="edge10" class="edge transition">
<title>OTurn&#45;&gt;MoveError</title>
<path fill="none" stroke="black" d="M656.1,-109.97C696.31,-129.52 773.04,-166.83 822.85,-191.05"/>
<polygon fill="black" stroke="black" points="821.16,-194.12 831.68,-195.35 824.22,-187.82 821.16,-194.12"/>
<text xml:space="preserve" text-anchor="start" x="726.8" y="-193.37" font-family="Helvetica,sans-Serif" font-size="10.00">move [invalid] &#160;&#160;</text>
</g>
<!-- MoveError&#45;&gt;GamePlayHistory -->
<g id="edge11" class="edge transition">
<title>MoveError&#45;&gt;GamePlayHistory</title>
<path fill="none" stroke="black" d="M832.34,-215.36C796.12,-216.59 739.85,-218.32 691.05,-219 450.11,-222.36 388.7,-225.36 149.3,-198 142.31,-197.2 134.81,-196.03 127.81,-194.8"/>
<polygon fill="black" stroke="black" points="128.6,-191.39 118.13,-192.99 127.32,-198.27 128.6,-191.39"/>
<text xml:space="preserve" text-anchor="start" x="498.17" y="-222.88" font-family="Helvetica,sans-Serif" font-size="10.00"> &#160;&#160;&#160;</text>
</g>
<!-- PlayerIdentity -->
<!-- Unassigned -->
<g id="node11" class="node state regular">
<title>Unassigned</title>
<polygon fill="#ffffff" fill-opacity="0.003922" stroke="none" stroke-width="2" points="141.3,-375 54.8,-375 54.8,-339 141.3,-339 141.3,-375"/>
<text xml:space="preserve" text-anchor="start" x="65.8" y="-351.98" font-family="Helvetica,sans-Serif" font-size="12.00">Unassigned</text>
<path fill="none" stroke="black" stroke-width="2" d="M66.72,-340.62C66.72,-340.62 129.38,-340.62 129.38,-340.62 134.84,-340.62 140.3,-346.08 140.3,-351.54 140.3,-351.54 140.3,-362.46 140.3,-362.46 140.3,-367.92 134.84,-373.38 129.38,-373.38 129.38,-373.38 66.72,-373.38 66.72,-373.38 61.26,-373.38 55.8,-367.92 55.8,-362.46 55.8,-362.46 55.8,-351.54 55.8,-351.54 55.8,-346.08 61.26,-340.62 66.72,-340.62"/>
</g>
<!-- XOnlyAssigned -->
<g id="node12" class="node state regular">
<title>XOnlyAssigned</title>
<polygon fill="#ffffff" fill-opacity="0.003922" stroke="none" stroke-width="2" points="442.17,-338 336.92,-338 336.92,-302 442.17,-302 442.17,-338"/>
<text xml:space="preserve" text-anchor="start" x="347.92" y="-314.98" font-family="Helvetica,sans-Serif" font-size="12.00">XOnlyAssigned</text>
<path fill="none" stroke="black" stroke-width="2" d="M348.84,-303.62C348.84,-303.62 430.26,-303.62 430.26,-303.62 435.72,-303.62 441.17,-309.08 441.17,-314.54 441.17,-314.54 441.17,-325.46 441.17,-325.46 441.17,-330.92 435.72,-336.38 430.26,-336.38 430.26,-336.38 348.84,-336.38 348.84,-336.38 343.38,-336.38 337.92,-330.92 337.92,-325.46 337.92,-325.46 337.92,-314.54 337.92,-314.54 337.92,-309.08 343.38,-303.62 348.84,-303.62"/>
</g>
<!-- Unassigned&#45;&gt;XOnlyAssigned -->
<g id="edge12" class="edge transition">
<title>Unassigned&#45;&gt;XOnlyAssigned</title>
<path fill="none" stroke="black" d="M141.19,-346.29C143.92,-345.73 146.65,-345.21 149.3,-344.75 208.73,-334.48 277.25,-327.92 325.69,-324.15"/>
<polygon fill="black" stroke="black" points="325.72,-327.66 335.43,-323.42 325.19,-320.68 325.72,-327.66"/>
<text xml:space="preserve" text-anchor="start" x="182.67" y="-346.5" font-family="Helvetica,sans-Serif" font-size="10.00">move.x [no X assigned] &#160;&#160;</text>
</g>
<!-- OOnlyAssigned -->
<g id="node13" class="node state regular">
<title>OOnlyAssigned</title>
<polygon fill="#ffffff" fill-opacity="0.003922" stroke="none" stroke-width="2" points="442.55,-396 336.55,-396 336.55,-360 442.55,-360 442.55,-396"/>
<text xml:space="preserve" text-anchor="start" x="347.55" y="-372.98" font-family="Helvetica,sans-Serif" font-size="12.00">OOnlyAssigned</text>
<path fill="none" stroke="black" stroke-width="2" d="M348.47,-361.62C348.47,-361.62 430.63,-361.62 430.63,-361.62 436.09,-361.62 441.55,-367.08 441.55,-372.54 441.55,-372.54 441.55,-383.46 441.55,-383.46 441.55,-388.92 436.09,-394.38 430.63,-394.38 430.63,-394.38 348.47,-394.38 348.47,-394.38 343.01,-394.38 337.55,-388.92 337.55,-383.46 337.55,-383.46 337.55,-372.54 337.55,-372.54 337.55,-367.08 343.01,-361.62 348.47,-361.62"/>
</g>
<!-- Unassigned&#45;&gt;OOnlyAssigned -->
<g id="edge13" class="edge transition">
<title>Unassigned&#45;&gt;OOnlyAssigned</title>
<path fill="none" stroke="black" d="M141.15,-360.05C189.56,-363.57 269.54,-369.37 325.42,-373.42"/>
<polygon fill="black" stroke="black" points="324.87,-376.89 335.1,-374.12 325.38,-369.91 324.87,-376.89"/>
<text xml:space="preserve" text-anchor="start" x="182.3" y="-375.21" font-family="Helvetica,sans-Serif" font-size="10.00">move.o [no O assigned] &#160;&#160;</text>
</g>
<!-- BothAssigned -->
<g id="node14" class="node state regular">
<title>BothAssigned</title>
<polygon fill="#ffffff" fill-opacity="0.003922" stroke="none" stroke-width="2" points="676.92,-371 579.92,-371 579.92,-335 676.92,-335 676.92,-371"/>
<text xml:space="preserve" text-anchor="start" x="590.92" y="-347.98" font-family="Helvetica,sans-Serif" font-size="12.00">BothAssigned</text>
<path fill="none" stroke="black" stroke-width="2" d="M591.84,-336.62C591.84,-336.62 665.01,-336.62 665.01,-336.62 670.47,-336.62 675.92,-342.08 675.92,-347.54 675.92,-347.54 675.92,-358.46 675.92,-358.46 675.92,-363.92 670.47,-369.38 665.01,-369.38 665.01,-369.38 591.84,-369.38 591.84,-369.38 586.38,-369.38 580.92,-363.92 580.92,-358.46 580.92,-358.46 580.92,-347.54 580.92,-347.54 580.92,-342.08 586.38,-336.62 591.84,-336.62"/>
</g>
<!-- XOnlyAssigned&#45;&gt;BothAssigned -->
<g id="edge14" class="edge transition">
<title>XOnlyAssigned&#45;&gt;BothAssigned</title>
<path fill="none" stroke="black" d="M441.95,-327.16C479.35,-332.37 530.05,-339.43 568.99,-344.86"/>
<polygon fill="black" stroke="black" points="568.27,-348.29 578.65,-346.21 569.23,-341.36 568.27,-348.29"/>
<text xml:space="preserve" text-anchor="start" x="450.55" y="-345" font-family="Helvetica,sans-Serif" font-size="10.00">move.o [different user] &#160;&#160;</text>
</g>
<!-- OOnlyAssigned&#45;&gt;BothAssigned -->
<g id="edge15" class="edge transition">
<title>OOnlyAssigned&#45;&gt;BothAssigned</title>
<path fill="none" stroke="black" d="M442.53,-372.51C479.84,-368.58 530.16,-363.27 568.88,-359.18"/>
<polygon fill="black" stroke="black" points="568.91,-362.7 578.48,-358.17 568.17,-355.73 568.91,-362.7"/>
<text xml:space="preserve" text-anchor="start" x="450.55" y="-373.05" font-family="Helvetica,sans-Serif" font-size="10.00">move.x [different user] &#160;&#160;</text>
</g>
<!-- GameSession -->
<!-- Active -->
<g id="node16" class="node state regular">
<title>Active</title>
<polygon fill="#ffffff" fill-opacity="0.003922" stroke="none" stroke-width="2" points="126.05,-527 70.05,-527 70.05,-491 126.05,-491 126.05,-527"/>
<text xml:space="preserve" text-anchor="start" x="81.55" y="-503.98" font-family="Helvetica,sans-Serif" font-size="12.00">Active</text>
<path fill="none" stroke="black" stroke-width="2" d="M81.97,-492.62C81.97,-492.62 114.13,-492.62 114.13,-492.62 119.59,-492.62 125.05,-498.08 125.05,-503.54 125.05,-503.54 125.05,-514.46 125.05,-514.46 125.05,-519.92 119.59,-525.38 114.13,-525.38 114.13,-525.38 81.97,-525.38 81.97,-525.38 76.51,-525.38 71.05,-519.92 71.05,-514.46 71.05,-514.46 71.05,-503.54 71.05,-503.54 71.05,-498.08 76.51,-492.62 81.97,-492.62"/>
</g>
<!-- Disposed -->
<g id="node17" class="node state final">
<title>Disposed</title>
<ellipse fill="black" stroke="black" stroke-width="2" cx="389.55" cy="-509" rx="5.4" ry="5.4"/>
<ellipse fill="none" stroke="black" stroke-width="2" cx="389.55" cy="-509" rx="9.4" ry="9.4"/>
</g>
<!-- Active&#45;&gt;Disposed -->
<g id="edge16" class="edge transition">
<title>Active&#45;&gt;Disposed</title>
<path fill="none" stroke="black" d="M125.96,-516.65C133.45,-518.45 141.64,-520.1 149.3,-521 228.42,-530.32 249.27,-528.85 328.55,-521 342.06,-519.66 357.03,-516.67 368.64,-514.01"/>
<polygon fill="black" stroke="black" points="369.32,-517.45 378.22,-511.7 367.67,-510.64 369.32,-517.45"/>
<text xml:space="preserve" text-anchor="start" x="149.3" y="-529.2" font-family="Helvetica,sans-Serif" font-size="10.00">game.dispose [participant or count &gt; 6] &#160;&#160;</text>
</g>
<!-- Active&#45;&gt;Disposed -->
<g id="edge17" class="edge transition">
<title>Active&#45;&gt;Disposed</title>
<path fill="none" stroke="black" d="M116.43,-491.24C125.41,-483.33 137.04,-474.88 149.3,-470.75 224.79,-445.29 252.07,-448.45 328.55,-470.75 345.06,-475.57 361.36,-486.46 372.79,-495.39"/>
<polygon fill="black" stroke="black" points="370.36,-497.92 380.3,-501.57 374.81,-492.51 370.36,-497.92"/>
<text xml:space="preserve" text-anchor="start" x="151.55" y="-472.5" font-family="Helvetica,sans-Serif" font-size="10.00">game.reset [participant &amp; has activity] &#160;&#160;</text>
</g>
<!-- Active&#45;&gt;Disposed -->
<g id="edge18" class="edge transition">
<title>Active&#45;&gt;Disposed</title>
<path fill="none" stroke="black" d="M125.91,-508.21C133.47,-508.02 141.71,-507.84 149.3,-507.75 228.96,-506.76 248.89,-506.92 328.55,-507.75 341.57,-507.89 356.18,-508.19 367.72,-508.46"/>
<polygon fill="black" stroke="black" points="367.6,-511.96 377.68,-508.71 367.77,-504.96 367.6,-511.96"/>
<text xml:space="preserve" text-anchor="start" x="204.8" y="-509.5" font-family="Helvetica,sans-Serif" font-size="10.00">game.timeout &#160;&#160;</text>
</g>
</g>
</svg>
