<?xml version="1.0" encoding="UTF-8" standalone="no"?>
<!DOCTYPE svg PUBLIC "-//W3C//DTD SVG 1.1//EN"
 "http://www.w3.org/Graphics/SVG/1.1/DTD/svg11.dtd">
<!-- Generated by graphviz version 14.1.2 (20260124.0452)
 -->
<!-- Title: state transitions Pages: 1 -->
<svg width="121pt" height="145pt"
 viewBox="0.00 0.00 121.00 145.00" xmlns="http://www.w3.org/2000/svg" xmlns:xlink="http://www.w3.org/1999/xlink">
<g id="graph0" class="graph" transform="scale(1 1) rotate(0) translate(4 141.3)">
<title>state transitions</title>
<polygon fill="white" stroke="none" points="-4,4 -4,-141.3 117.13,-141.3 117.13,4 -4,4"/>
<!-- initial -->
<g id="node1" class="node state initial">
<title>initial</title>
<ellipse fill="black" stroke="black" stroke-width="2" cx="54.88" cy="-131.9" rx="5.4" ry="5.4"/>
</g>
<!-- Unauthenticated -->
<g id="node2" class="node state regular">
<title>Unauthenticated</title>
<polygon fill="#ffffff" fill-opacity="0.003922" stroke="none" stroke-width="2" points="109.75,-99.25 0,-99.25 0,-63.25 109.75,-63.25 109.75,-99.25"/>
<text xml:space="preserve" text-anchor="start" x="11" y="-76.22" font-family="Helvetica,sans-Serif" font-size="12.00">Unauthenticated</text>
<path fill="none" stroke="black" stroke-width="2" d="M11.92,-64.88C11.92,-64.88 97.83,-64.88 97.83,-64.88 103.29,-64.88 108.75,-70.33 108.75,-75.79 108.75,-75.79 108.75,-86.71 108.75,-86.71 108.75,-92.17 103.29,-97.62 97.83,-97.62 97.83,-97.62 11.92,-97.62 11.92,-97.62 6.46,-97.62 1,-92.17 1,-86.71 1,-86.71 1,-75.79 1,-75.79 1,-70.33 6.46,-64.88 11.92,-64.88"/>
</g>
<!-- initial&#45;&gt;Unauthenticated -->
<g id="edge1" class="edge transition">
<title>initial&#45;&gt;Unauthenticated</title>
<path fill="none" stroke="black" d="M54.88,-125.69C54.88,-121.81 54.88,-116.17 54.88,-110.23"/>
<polygon fill="black" stroke="black" points="58.38,-110.34 54.88,-100.34 51.38,-110.34 58.38,-110.34"/>
<text xml:space="preserve" text-anchor="start" x="54.88" y="-109" font-family="Helvetica,sans-Serif" font-size="10.00"> &#160;&#160;&#160;</text>
</g>
<!-- Browsing -->
<g id="node3" class="node state regular">
<title>Browsing</title>
<polygon fill="#ffffff" fill-opacity="0.003922" stroke="none" stroke-width="2" points="91,-36 18.75,-36 18.75,0 91,0 91,-36"/>
<text xml:space="preserve" text-anchor="start" x="29.75" y="-12.97" font-family="Helvetica,sans-Serif" font-size="12.00">Browsing</text>
<path fill="none" stroke="black" stroke-width="2" d="M30.67,-1.62C30.67,-1.62 79.08,-1.62 79.08,-1.62 84.54,-1.62 90,-7.08 90,-12.54 90,-12.54 90,-23.46 90,-23.46 90,-28.92 84.54,-34.38 79.08,-34.38 79.08,-34.38 30.67,-34.38 30.67,-34.38 25.21,-34.38 19.75,-28.92 19.75,-23.46 19.75,-23.46 19.75,-12.54 19.75,-12.54 19.75,-7.08 25.21,-1.62 30.67,-1.62"/>
</g>
<!-- Unauthenticated&#45;&gt;Browsing -->
<g id="edge2" class="edge transition">
<title>Unauthenticated&#45;&gt;Browsing</title>
<path fill="none" stroke="black" d="M15.44,-63.61C12.68,-61.17 10.26,-58.4 8.38,-55.25 5.03,-49.65 6.23,-44.59 9.93,-40.15"/>
<polygon fill="black" stroke="black" points="12.15,-42.85 17.65,-33.8 7.7,-37.44 12.15,-42.85"/>
<text xml:space="preserve" text-anchor="start" x="8.38" y="-45.75" font-family="Helvetica,sans-Serif" font-size="10.00">authenticated &#160;&#160;</text>
</g>
<!-- Browsing&#45;&gt;Unauthenticated -->
<g id="edge3" class="edge transition">
<title>Browsing&#45;&gt;Unauthenticated</title>
<path fill="none" stroke="black" d="M72.58,-35.67C75.61,-39.94 77.82,-44.7 76.25,-52.53"/>
<polygon fill="black" stroke="black" points="72.99,-51.26 73,-61.85 79.6,-53.57 72.99,-51.26"/>
<text xml:space="preserve" text-anchor="start" x="77.88" y="-45.75" font-family="Helvetica,sans-Serif" font-size="10.00">logout &#160;&#160;</text>
</g>
</g>
</svg>
